<svg width="13" height="15" viewBox="0 0 13 15" fill="none" xmlns="http://www.w3.org/2000/svg">
<path fill-rule="evenodd" clip-rule="evenodd" d="M6.42734 2.16638L12.5623 8.30133V12.6029C12.5623 13.0097 12.4007 13.3998 12.1131 13.6875C11.8254 13.9751 11.4353 14.1367 11.0285 14.1367H1.82613C1.41935 14.1367 1.02924 13.9751 0.74161 13.6875C0.453979 13.3998 0.292389 13.0097 0.292389 12.6029V8.30133L6.42734 2.16638ZM11.5398 1.35554V4.93426L9.49481 2.88928V1.35554C9.49481 1.21995 9.54868 1.08992 9.64455 0.99404C9.74043 0.898163 9.87047 0.844299 10.0061 0.844299H11.0285C11.1641 0.844299 11.2942 0.898163 11.3901 0.99404C11.4859 1.08992 11.5398 1.21995 11.5398 1.35554Z" fill="white"/>
</svg>
