<svg width="14" height="11" viewBox="0 0 14 11" fill="none" xmlns="http://www.w3.org/2000/svg">
<path d="M0.333928 1.39591C0.417685 1.0195 0.623581 0.683421 0.917897 0.442706C1.21221 0.20199 1.5775 0.0709121 1.95394 0.0709381H11.9232C12.2997 0.0709121 12.665 0.20199 12.9593 0.442706C13.2536 0.683421 13.4595 1.0195 13.5432 1.39591L6.93858 5.53615L0.333928 1.39591ZM0.292389 2.36898V8.42212L5.11337 5.39044L0.292389 2.36898ZM5.90925 5.89061L0.451067 9.32192C0.585924 9.61357 0.798768 9.85994 1.06483 10.0324C1.33089 10.2048 1.63922 10.2961 1.95394 10.2958H11.9232C12.2379 10.2959 12.5461 10.2043 12.812 10.0318C13.0779 9.8592 13.2906 9.61274 13.4253 9.32106L7.96708 5.88976L6.93858 6.53478L5.90925 5.89061ZM8.76379 5.39129L13.5848 8.42212V2.36898L8.76379 5.39129Z" fill="white"/>
</svg>
