<svg width="16" height="12" viewBox="0 0 16 12" fill="none" xmlns="http://www.w3.org/2000/svg">
<path d="M6.02141 5.95242C6.78411 5.95242 7.51557 5.65617 8.05488 5.12884C8.59419 4.60152 8.89717 3.88632 8.89717 3.14057C8.89717 2.39482 8.59419 1.67962 8.05488 1.15229C7.51557 0.624968 6.78411 0.32872 6.02141 0.32872C5.25871 0.32872 4.52725 0.624968 3.98794 1.15229C3.44863 1.67962 3.14565 2.39482 3.14565 3.14057C3.14565 3.88632 3.44863 4.60152 3.98794 5.12884C4.52725 5.65617 5.25871 5.95242 6.02141 5.95242ZM1.22848 11.5761C1.22848 11.5761 0.269897 11.5761 0.269897 10.6388C0.269897 9.70155 1.22848 6.8897 6.02141 6.8897C10.8143 6.8897 11.7729 9.70155 11.7729 10.6388C11.7729 11.5761 10.8143 11.5761 10.8143 11.5761H1.22848ZM10.8143 1.73464C10.8143 1.61035 10.8648 1.49115 10.9547 1.40326C11.0446 1.31538 11.1665 1.266 11.2936 1.266H15.128C15.2551 1.266 15.377 1.31538 15.4669 1.40326C15.5568 1.49115 15.6073 1.61035 15.6073 1.73464C15.6073 1.85894 15.5568 1.97814 15.4669 2.06602C15.377 2.15391 15.2551 2.20329 15.128 2.20329H11.2936C11.1665 2.20329 11.0446 2.15391 10.9547 2.06602C10.8648 1.97814 10.8143 1.85894 10.8143 1.73464ZM11.2936 4.07785C11.1665 4.07785 11.0446 4.12722 10.9547 4.21511C10.8648 4.303 10.8143 4.4222 10.8143 4.54649C10.8143 4.67078 10.8648 4.78998 10.9547 4.87787C11.0446 4.96576 11.1665 5.01513 11.2936 5.01513H15.128C15.2551 5.01513 15.377 4.96576 15.4669 4.87787C15.5568 4.78998 15.6073 4.67078 15.6073 4.54649C15.6073 4.4222 15.5568 4.303 15.4669 4.21511C15.377 4.12722 15.2551 4.07785 15.128 4.07785H11.2936ZM13.2108 6.8897C13.0837 6.8897 12.9618 6.93907 12.8719 7.02696C12.782 7.11485 12.7315 7.23405 12.7315 7.35834C12.7315 7.48263 12.782 7.60183 12.8719 7.68972C12.9618 7.77761 13.0837 7.82698 13.2108 7.82698H15.128C15.2551 7.82698 15.377 7.77761 15.4669 7.68972C15.5568 7.60183 15.6073 7.48263 15.6073 7.35834C15.6073 7.23405 15.5568 7.11485 15.4669 7.02696C15.377 6.93907 15.2551 6.8897 15.128 6.8897H13.2108ZM13.2108 9.70155C13.0837 9.70155 12.9618 9.75092 12.8719 9.83881C12.782 9.92669 12.7315 10.0459 12.7315 10.1702C12.7315 10.2945 12.782 10.4137 12.8719 10.5016C12.9618 10.5895 13.0837 10.6388 13.2108 10.6388H15.128C15.2551 10.6388 15.377 10.5895 15.4669 10.5016C15.5568 10.4137 15.6073 10.2945 15.6073 10.1702C15.6073 10.0459 15.5568 9.92669 15.4669 9.83881C15.377 9.75092 15.2551 9.70155 15.128 9.70155H13.2108Z" fill="white"/>
</svg>
