<svg width="13" height="13" viewBox="0 0 13 13" fill="none" xmlns="http://www.w3.org/2000/svg">
<path fill-rule="evenodd" clip-rule="evenodd" d="M1.73825 0.576371C1.87243 0.442384 2.03355 0.338446 2.21093 0.271443C2.38832 0.204439 2.57791 0.175902 2.76716 0.187722C2.9564 0.199542 3.14098 0.251448 3.30864 0.340002C3.47631 0.428556 3.62325 0.551735 3.73972 0.701376L5.1162 2.46986C5.36849 2.79426 5.45745 3.21682 5.35776 3.61561L4.93829 5.29513C4.91661 5.38212 4.91778 5.47324 4.9417 5.55964C4.96561 5.64605 5.01146 5.7248 5.07479 5.78825L6.95893 7.67253C7.02245 7.736 7.10133 7.78193 7.18787 7.80585C7.27442 7.82977 7.36568 7.83087 7.45278 7.80904L9.1314 7.38954C9.32818 7.34034 9.53358 7.33652 9.73205 7.37837C9.93053 7.42022 10.1169 7.50665 10.2771 7.63112L12.0454 9.00694C12.6811 9.5016 12.7394 10.4411 12.1704 11.0093L11.3775 11.8023C10.81 12.3698 9.96189 12.6191 9.17128 12.3407C7.14771 11.6286 5.31042 10.4701 3.7957 8.95096C2.2768 7.43634 1.11834 5.59918 0.406243 3.57573C0.128645 2.78582 0.37787 1.93686 0.945335 1.36935L1.73825 0.576371Z" fill="white"/>
</svg>
