<svg width="14" height="12" viewBox="0 0 14 12" fill="none" xmlns="http://www.w3.org/2000/svg">
<path d="M0.823747 0.608994C0.676857 0.608994 0.535983 0.668243 0.432116 0.773708C0.328249 0.879173 0.269897 1.02221 0.269897 1.17136C0.269897 1.32051 0.328249 1.46355 0.432116 1.56902C0.535983 1.67448 0.676857 1.73373 0.823747 1.73373H13.0084C13.1553 1.73373 13.2962 1.67448 13.4001 1.56902C13.5039 1.46355 13.5623 1.32051 13.5623 1.17136C13.5623 1.02221 13.5039 0.879173 13.4001 0.773708C13.2962 0.668243 13.1553 0.608994 13.0084 0.608994H0.823747ZM6.36224 3.98321C6.21535 3.98321 6.07448 4.04246 5.97061 4.14792C5.86674 4.25339 5.80839 4.39643 5.80839 4.54558C5.80839 4.69473 5.86674 4.83777 5.97061 4.94324C6.07448 5.0487 6.21535 5.10795 6.36224 5.10795H13.0084C13.1553 5.10795 13.2962 5.0487 13.4001 4.94324C13.5039 4.83777 13.5623 4.69473 13.5623 4.54558C13.5623 4.39643 13.5039 4.25339 13.4001 4.14792C13.2962 4.04246 13.1553 3.98321 13.0084 3.98321H6.36224ZM6.36224 7.35743C6.21535 7.35743 6.07448 7.41668 5.97061 7.52214C5.86674 7.62761 5.80839 7.77065 5.80839 7.9198C5.80839 8.06895 5.86674 8.21199 5.97061 8.31745C6.07448 8.42292 6.21535 8.48217 6.36224 8.48217H13.0084C13.1553 8.48217 13.2962 8.42292 13.4001 8.31745C13.5039 8.21199 13.5623 8.06895 13.5623 7.9198C13.5623 7.77065 13.5039 7.62761 13.4001 7.52214C13.2962 7.41668 13.1553 7.35743 13.0084 7.35743H6.36224ZM0.823747 10.7316C0.676857 10.7316 0.535983 10.7909 0.432116 10.8964C0.328249 11.0018 0.269897 11.1449 0.269897 11.294C0.269897 11.4432 0.328249 11.5862 0.432116 11.6917C0.535983 11.7971 0.676857 11.8564 0.823747 11.8564H13.0084C13.1553 11.8564 13.2962 11.7971 13.4001 11.6917C13.5039 11.5862 13.5623 11.4432 13.5623 11.294C13.5623 11.1449 13.5039 11.0018 13.4001 10.8964C13.2962 10.7909 13.1553 10.7316 13.0084 10.7316H0.823747ZM1.69883 4.68842C1.82289 4.60069 1.98683 4.49722 2.19065 4.37912L1.95803 3.98321C1.82289 4.06644 1.65674 4.17442 1.45735 4.30601C1.25796 4.43761 1.06966 4.59844 0.892424 4.7874C0.716603 4.97573 0.568152 5.18858 0.45156 5.4195C0.329713 5.65232 0.269897 5.91214 0.269897 6.19782C0.269897 6.60273 0.349652 6.9289 0.510268 7.17972C0.669777 7.42604 0.936732 7.54863 1.30781 7.54863C1.54597 7.54863 1.73206 7.4699 1.86609 7.31131C1.99651 7.16983 2.0707 6.98431 2.07434 6.79056C2.07434 6.53187 1.9968 6.33616 1.84061 6.20457C1.68886 6.06848 1.4795 5.99987 1.21144 5.99987H0.89907C0.925655 5.77155 0.971071 5.58371 1.03532 5.43975C1.10544 5.28653 1.19972 5.14596 1.31446 5.02359C1.42877 4.89694 1.55742 4.78444 1.69772 4.68842H1.69883ZM4.09921 4.68842C4.22438 4.60069 4.38943 4.49722 4.59214 4.37912L4.35952 3.98321C4.22438 4.06644 4.05823 4.17442 3.85884 4.30601C3.65946 4.43761 3.47115 4.59844 3.29392 4.7874C3.11809 4.97573 2.96964 5.18858 2.85305 5.4195C2.7312 5.65232 2.67139 5.91214 2.67139 6.19782C2.67139 6.60273 2.75114 6.9289 2.91176 7.17972C3.07127 7.42604 3.33822 7.54863 3.7093 7.54863C3.94746 7.54863 4.13355 7.4699 4.26758 7.31131C4.398 7.16983 4.47219 6.98431 4.47583 6.79056C4.47583 6.53187 4.39829 6.33616 4.24211 6.20457C4.09035 6.06848 3.881 5.99987 3.61293 5.99987H3.30056C3.3175 5.80996 3.36153 5.62355 3.43127 5.4465C3.49552 5.30028 3.59078 5.16081 3.71595 5.02472C3.83014 4.89728 3.95879 4.78401 4.09921 4.6873V4.68842Z" fill="white"/>
</svg>
