<svg width="13" height="13" viewBox="0 0 13 13" fill="none" xmlns="http://www.w3.org/2000/svg">
<path d="M4.89346 0.848821C4.89346 0.747129 4.93386 0.649603 5.00577 0.577696C5.07769 0.50579 5.17522 0.465393 5.27693 0.465393H7.57775C7.67945 0.465393 7.77699 0.50579 7.8489 0.577696C7.92082 0.649603 7.96122 0.747129 7.96122 0.848821C7.96122 0.950512 7.92082 1.04804 7.8489 1.11994C7.77699 1.19185 7.67945 1.23225 7.57775 1.23225H7.19428V2.05278C8.2387 2.20353 9.21555 2.65865 10.0028 3.3613C10.79 4.06394 11.3527 4.98295 11.6206 6.00351C11.8885 7.02408 11.8497 8.10094 11.509 9.09958C11.1684 10.0982 10.541 10.9744 9.70524 11.6185L10.1662 12.0802C10.2382 12.1521 10.2787 12.2496 10.2787 12.3514C10.2788 12.4531 10.2385 12.5507 10.1666 12.6227C10.0947 12.6947 9.99709 12.7352 9.89533 12.7353C9.79357 12.7354 9.69595 12.695 9.62395 12.6231L9.05181 12.051C8.25034 12.5009 7.34643 12.7365 6.42734 12.7351C5.50825 12.7365 4.60433 12.5009 3.80287 12.051L3.23073 12.6231C3.19508 12.6587 3.15276 12.6869 3.1062 12.7062C3.05963 12.7254 3.00973 12.7353 2.95935 12.7353C2.90896 12.7353 2.85907 12.7253 2.81254 12.706C2.766 12.6867 2.72372 12.6584 2.68812 12.6227C2.65252 12.5871 2.62428 12.5448 2.60504 12.4982C2.58579 12.4517 2.5759 12.4018 2.57593 12.3514C2.57601 12.2496 2.6165 12.1521 2.6885 12.0802L3.1502 11.6185C2.31446 10.9744 1.68705 10.0983 1.34636 9.09975C1.00567 8.10117 0.966802 7.02435 1.23461 6.00381C1.50241 4.98327 2.06502 4.06425 2.85215 3.36155C3.63928 2.65886 4.61603 2.20365 5.6604 2.05278V1.23225H5.27693C5.17522 1.23225 5.07769 1.19185 5.00577 1.11994C4.93386 1.04804 4.89346 0.950512 4.89346 0.848821V0.848821ZM6.81081 4.6831C6.81081 4.58141 6.77041 4.48388 6.69849 4.41197C6.62658 4.34007 6.52904 4.29967 6.42734 4.29967C6.32564 4.29967 6.2281 4.34007 6.15618 4.41197C6.08427 4.48388 6.04387 4.58141 6.04387 4.6831V7.26126L4.94791 9.08638C4.89553 9.17363 4.87997 9.27811 4.90463 9.37684C4.9293 9.47557 4.99218 9.56046 5.07944 9.61283C5.1667 9.6652 5.27119 9.68076 5.36993 9.6561C5.46867 9.63143 5.55357 9.56856 5.60594 9.48131L6.75635 7.56417C6.79201 7.50462 6.81083 7.4365 6.81081 7.36709V4.6831ZM0.951383 4.59644C0.752945 4.42385 0.59214 4.21228 0.47897 3.9749C0.365799 3.73751 0.302683 3.47938 0.293546 3.21656C0.284409 2.95374 0.329447 2.69186 0.425859 2.44719C0.522271 2.20251 0.667994 1.98029 0.853968 1.79434C1.03994 1.60839 1.26219 1.46268 1.50689 1.36628C1.75158 1.26988 2.0135 1.22484 2.27635 1.23398C2.5392 1.24312 2.79735 1.30623 3.03477 1.41938C3.27218 1.53254 3.48377 1.69333 3.65638 1.89174C2.49059 2.48356 1.54327 3.43078 0.951383 4.59644V4.59644ZM9.19829 1.89174C9.3709 1.69333 9.5825 1.53254 9.81991 1.41938C10.0573 1.30623 10.3155 1.24312 10.5783 1.23398C10.8412 1.22484 11.1031 1.26988 11.3478 1.36628C11.5925 1.46268 11.8147 1.60839 12.0007 1.79434C12.1867 1.98029 12.3324 2.20251 12.4288 2.44719C12.5252 2.69186 12.5703 2.95374 12.5611 3.21656C12.552 3.47938 12.4889 3.73751 12.3757 3.9749C12.2625 4.21228 12.1017 4.42385 11.9033 4.59644C11.3114 3.43078 10.3641 2.48356 9.19829 1.89174V1.89174Z" fill="white"/>
</svg>
