<svg width="14" height="19" viewBox="0 0 14 19" fill="none" xmlns="http://www.w3.org/2000/svg">
<path d="M6.93858 1.85952C5.46968 1.85952 4.06094 2.46997 3.02228 3.55658C1.98361 4.64319 1.40009 6.11694 1.40009 7.65364V8.81246H2.50779C2.80157 8.81246 3.08331 8.93455 3.29105 9.15187C3.49878 9.36919 3.61549 9.66394 3.61549 9.97128V13.4477C3.61549 13.7551 3.49878 14.0498 3.29105 14.2672C3.08331 14.4845 2.80157 14.6066 2.50779 14.6066H1.40009C1.10631 14.6066 0.82456 14.4845 0.616826 14.2672C0.409093 14.0498 0.292389 13.7551 0.292389 13.4477V7.65364C0.292389 6.74056 0.464298 5.83643 0.7983 4.99286C1.1323 4.14929 1.62186 3.38281 2.23901 2.73717C2.85617 2.09153 3.58884 1.57938 4.39519 1.22996C5.20155 0.880542 6.06579 0.700699 6.93858 0.700699C7.81137 0.700699 8.67562 0.880542 9.48197 1.22996C10.2883 1.57938 11.021 2.09153 11.6382 2.73717C12.2553 3.38281 12.7449 4.14929 13.0789 4.99286C13.4129 5.83643 13.5848 6.74056 13.5848 7.65364V14.6066C13.5848 15.3749 13.293 16.1118 12.7737 16.6551C12.2543 17.1984 11.55 17.5036 10.8155 17.5036H8.4517C8.35448 17.6798 8.21465 17.8261 8.04627 17.9278C7.87788 18.0295 7.68687 18.083 7.49243 18.083H6.38473C6.09095 18.083 5.80921 17.9609 5.60147 17.7436C5.39374 17.5263 5.27703 17.2316 5.27703 16.9242C5.27703 16.6169 5.39374 16.3221 5.60147 16.1048C5.80921 15.8875 6.09095 15.7654 6.38473 15.7654H7.49243C7.68687 15.7654 7.87788 15.8189 8.04627 15.9207C8.21465 16.0224 8.35448 16.1686 8.4517 16.3448H10.8155C11.2562 16.3448 11.6788 16.1617 11.9904 15.8357C12.302 15.5097 12.4771 15.0676 12.4771 14.6066H11.3694C11.0756 14.6066 10.7939 14.4845 10.5861 14.2672C10.3784 14.0498 10.2617 13.7551 10.2617 13.4477V9.97128C10.2617 9.66394 10.3784 9.36919 10.5861 9.15187C10.7939 8.93455 11.0756 8.81246 11.3694 8.81246H12.4771V7.65364C12.4771 6.89274 12.3338 6.1393 12.0555 5.43632C11.7771 4.73335 11.3692 4.09461 10.8549 3.55658C10.3406 3.01854 9.73003 2.59175 9.05807 2.30057C8.38611 2.00939 7.66591 1.85952 6.93858 1.85952V1.85952Z" fill="white"/>
</svg>
