<svg width="37" height="37" viewBox="0 0 37 37" fill="none" xmlns="http://www.w3.org/2000/svg">
<path d="M37 18.5C37 13.5935 35.0509 8.88795 31.5815 5.41852C28.1121 1.9491 23.4065 0 18.5 0C13.5935 0 8.88795 1.9491 5.41852 5.41852C1.9491 8.88795 0 13.5935 0 18.5C0 23.4065 1.9491 28.1121 5.41852 31.5815C8.88795 35.0509 13.5935 37 18.5 37C23.4065 37 28.1121 35.0509 31.5815 31.5815C35.0509 28.1121 37 23.4065 37 18.5ZM19.6562 26.5938C19.6562 26.9004 19.5344 27.1945 19.3176 27.4113C19.1008 27.6282 18.8067 27.75 18.5 27.75C18.1933 27.75 17.8992 27.6282 17.6824 27.4113C17.4656 27.1945 17.3438 26.9004 17.3438 26.5938V13.1974L12.3811 18.1624C12.164 18.3795 11.8695 18.5015 11.5625 18.5015C11.2555 18.5015 10.961 18.3795 10.7439 18.1624C10.5268 17.9453 10.4048 17.6508 10.4048 17.3438C10.4048 17.0367 10.5268 16.7422 10.7439 16.5251L17.6814 9.58762C17.7888 9.47995 17.9164 9.39452 18.0568 9.33623C18.1973 9.27794 18.3479 9.24793 18.5 9.24793C18.6521 9.24793 18.8027 9.27794 18.9432 9.33623C19.0836 9.39452 19.2112 9.47995 19.3186 9.58762L26.2561 16.5251C26.4732 16.7422 26.5952 17.0367 26.5952 17.3438C26.5952 17.6508 26.4732 17.9453 26.2561 18.1624C26.039 18.3795 25.7445 18.5015 25.4375 18.5015C25.1305 18.5015 24.836 18.3795 24.6189 18.1624L19.6562 13.1974V26.5938Z" fill="white"/>
</svg>
